<svg width="397" height="130" viewBox="0 0 397 130" fill="none" xmlns="http://www.w3.org/2000/svg">
<path d="M113.696 84.882L105.608 76.7314C103.9 75.0095 102.275 76.8163 100.899 76.043C99.5084 75.27 98.3987 74.0707 97.7306 72.6191C97.277 71.5982 97.5962 68.6585 96.2551 67.3088C91.2943 62.3076 83.0383 53.989 83.0383 53.989C61.0903 31.8699 38.3248 43.9178 38.4395 45.0561C38.5614 46.2449 56.2371 44.5646 67.3832 55.7976C70.4669 58.9053 68.3908 62.8026 61.7877 69.4553C60.8608 70.3895 60.8017 71.8638 61.6604 72.7293L64.1005 75.1884L55.2223 84.1376L13.0009 126.692V129.084H100.355V104.873C98.7628 104.523 97.3042 103.717 96.1547 102.553L88.0672 94.4039C87.4352 93.7732 86.9036 93.048 86.4913 92.2538V115.11H44.1013L65.031 94.019L73.9091 85.0717L76.3528 87.5326C77.2097 88.3962 78.6709 88.3366 79.5996 87.4007C86.8606 80.083 87.5634 82.0145 88.1479 82.2783C89.5907 82.9497 90.7838 84.0667 91.5543 85.4674C92.3198 86.855 90.527 88.492 92.2355 90.2139L100.321 98.3644C101.987 100.041 104.343 98.6824 105.521 97.5008L109.185 93.8076L112.846 90.1163C114.011 88.9328 115.36 86.5587 113.696 84.882Z" fill="#CD8C52"/>
<path d="M66.4741 9.85077L56.6651 0L46.856 9.85077L0.70108 56.2021V75.9036L13.0657 63.4863V117.967L26.9051 104.068V49.5881L56.6651 19.7015L112.629 75.9036V56.2021L66.4741 9.85077Z" fill="#3D2211"/>
<path d="M155.305 95.2789C157.437 96.1976 159.247 97.7682 160.491 99.7803C161.736 101.792 162.355 104.15 162.268 106.536C162.32 108.936 161.693 111.299 160.462 113.334C159.209 115.314 157.413 116.863 155.305 117.782C152.805 118.864 150.112 119.39 147.403 119.326H140.498V129.084H132.596V93.6919H147.408C150.119 93.6343 152.812 94.1753 155.305 95.2789ZM152.395 111.083C153.632 110.018 154.248 108.513 154.248 106.558C154.248 104.603 153.632 103.044 152.395 101.978C151.157 100.913 149.346 100.386 146.967 100.386H140.509V112.676H146.967C149.346 112.676 151.156 112.145 152.395 111.083Z" fill="#CD8C52"/>
<path d="M195.667 122.493V129.084H167.842V93.6877H194.998V100.278H176.11V107.967H192.79V114.338H176.11V122.532L195.667 122.493Z" fill="#CD8C52"/>
<path d="M232.693 129.073L232.645 107.885L222.463 125.327H218.915L208.733 108.302V129.084H201.23V93.6877H207.865L220.796 115.656L233.524 93.6877H240.132L240.185 129.084L232.693 129.073Z" fill="#CD8C52"/>
<path d="M255.206 126.664C252.334 125.14 249.93 122.844 248.258 120.028C246.615 117.123 245.75 113.832 245.75 110.483C245.75 107.133 246.615 103.842 248.258 100.937C249.924 98.0999 252.327 95.7828 255.206 94.2403C258.291 92.6526 261.701 91.8252 265.16 91.8252C268.619 91.8252 272.029 92.6526 275.114 94.2403C278.011 95.8065 280.434 98.1423 282.123 100.998C283.813 103.853 284.705 107.121 284.705 110.452C284.705 113.783 283.813 117.05 282.123 119.906C280.434 122.762 278.011 125.097 275.114 126.664C272.03 128.255 268.619 129.084 265.16 129.084C261.7 129.084 258.29 128.255 255.206 126.664ZM270.854 120.514C272.531 119.552 273.91 118.135 274.838 116.422C275.786 114.579 276.282 112.531 276.282 110.452C276.282 108.373 275.786 106.325 274.838 104.482C273.91 102.769 272.531 101.352 270.854 100.39C269.111 99.4286 267.158 98.9252 265.173 98.9252C263.189 98.9252 261.236 99.4286 259.493 100.39C257.816 101.352 256.437 102.769 255.509 104.482C254.561 106.325 254.065 108.373 254.065 110.452C254.065 112.531 254.561 114.579 255.509 116.422C256.437 118.135 257.816 119.552 259.493 120.514C261.235 121.479 263.188 121.985 265.173 121.985C267.159 121.985 269.112 121.479 270.854 120.514Z" fill="#CD8C52"/>
<path d="M323.66 93.6877V129.084H315.692V114.568H300.077V129.084H292.125V93.6877H300.077V107.643H315.692V93.6877H323.66Z" fill="#CD8C52"/>
<path d="M358.905 100.361H347.268V129.084H338.961V100.361H327.37V93.6877H358.905V100.361Z" fill="#CD8C52"/>
<path d="M385.041 121.499H369.681L366.75 129.084H358.906L373.67 93.6877H381.216L396.006 129.084H387.972L385.041 121.499ZM382.633 115.299L377.387 101.75L372.13 115.299H382.633Z" fill="#CD8C52"/>
<path d="M175.262 32.3609H158.827V73.1955H147.099V32.3827H130.742V22.896H175.251L175.262 32.3609Z" fill="#CD8C52"/>
<path d="M190.629 69.9287C186.524 67.8606 183.09 64.7493 180.706 60.9353C178.354 57.0136 177.117 52.5693 177.117 48.0458C177.117 43.5223 178.354 39.0779 180.706 35.1562C183.09 31.3422 186.524 28.2309 190.629 26.1628C195.035 24.0153 199.908 22.896 204.85 22.896C209.793 22.896 214.665 24.0153 219.071 26.1628C223.208 28.2777 226.668 31.431 229.08 35.2855C231.492 39.1399 232.767 43.5506 232.767 48.0458C232.767 52.541 231.492 56.9516 229.08 60.8061C226.668 64.6606 223.208 67.8138 219.071 69.9287C214.665 72.0762 209.793 73.1955 204.85 73.1955C199.908 73.1955 195.035 72.0762 190.629 69.9287ZM212.988 61.6307C215.38 60.3275 217.349 58.4146 218.675 56.104C220.032 53.6171 220.741 50.8523 220.741 48.0458C220.741 45.2392 220.032 42.4744 218.675 39.9875C217.35 37.6731 215.381 35.7563 212.988 34.4502C210.496 33.1554 207.707 32.4773 204.872 32.4773C202.038 32.4773 199.248 33.1554 196.756 34.4502C194.363 35.7512 192.394 37.6647 191.069 39.977C189.712 42.4638 189.004 45.2287 189.004 48.0352C189.004 50.8418 189.712 53.6066 191.069 56.0935C192.388 58.4075 194.351 60.3246 196.74 61.6307C199.232 62.9256 202.021 63.6037 204.856 63.6037C207.69 63.6037 210.48 62.9256 212.972 61.6307H212.988Z" fill="#CD8C52"/>
<path d="M280.996 22.896V73.1955H269.986V55.0964C266.269 56.5847 262.333 57.3864 258.354 57.4657C251.89 57.4657 246.936 55.8498 243.492 52.6182C240.048 49.3865 238.328 44.7296 238.331 38.6476V22.9177H249.358V37.3567C249.358 40.8026 250.241 43.3989 252.008 45.1454C253.776 46.892 256.333 47.767 259.679 47.7707C263.232 47.797 266.75 47.0378 270.001 45.543V22.9177L280.996 22.896Z" fill="#CD8C52"/>
<path d="M312.999 52.9112H305.196V73.1955H293.98V22.9014H305.196V43.2294H313.279L326.096 22.896H338.009L322.06 47.1795L338.5 73.1955H325.678L312.999 52.9112Z" fill="#CD8C52"/>
<path d="M377.706 62.3957H354.665L350.273 73.1955H338.5L360.622 22.896H371.964L394.15 73.1955H382.098L377.706 62.3957ZM374.088 53.5792L366.218 34.3225L358.353 53.5792H374.088Z" fill="#CD8C52"/>
</svg>
