<svg width="24" height="24" viewBox="0 0 24 24" fill="none" xmlns="http://www.w3.org/2000/svg">
<path d="M9.36195 9.15806C9.36195 9.15806 6.20195 9.50806 4.09395 9.74206C3.90395 9.76506 3.73595 9.89206 3.67295 10.0851C3.60995 10.2781 3.67295 10.4791 3.81295 10.6061C5.37895 12.0351 7.73195 14.1751 7.73195 14.1751C7.72995 14.1751 7.08595 17.2881 6.65795 19.3651C6.62195 19.5531 6.68995 19.7521 6.85395 19.8711C7.01695 19.9901 7.22695 19.9921 7.39195 19.8991C9.23595 18.8511 11.998 17.2751 11.998 17.2751C11.998 17.2751 14.761 18.8511 16.602 19.9001C16.77 19.9921 16.98 19.9901 17.143 19.8711C17.307 19.7521 17.375 19.5531 17.338 19.3661C16.91 17.2881 16.267 14.1751 16.267 14.1751C16.267 14.1751 18.62 12.0351 20.186 10.6091C20.326 10.4781 20.388 10.2771 20.326 10.0851C20.264 9.89306 20.096 9.76606 19.906 9.74406C17.798 9.50806 14.637 9.15806 14.637 9.15806C14.637 9.15806 13.327 6.26006 12.454 4.32806C12.372 4.15506 12.2 4.03406 11.998 4.03406C11.796 4.03406 11.623 4.15606 11.545 4.32806C10.671 6.26006 9.36195 9.15806 9.36195 9.15806Z" fill="#F79400"/>
</svg>
