<svg width="36" height="36" viewBox="0 0 36 36" fill="none" xmlns="http://www.w3.org/2000/svg">
<circle cx="18" cy="18" r="18" fill="#D9D9D9"/>
<g clip-path="url(#clip0_1_196)">
<circle cx="18" cy="18" r="16" fill="#F5F5F5"/>
<path d="M17.9999 23.8334C21.9119 23.8334 25.0832 20.0278 25.0832 15.3334C25.0832 10.639 21.9119 6.83337 17.9999 6.83337C14.0879 6.83337 10.9166 10.639 10.9166 15.3334C10.9166 20.0278 14.0879 23.8334 17.9999 23.8334Z" fill="#D9D9D9"/>
<path d="M31.8832 31.0584C30.6082 28.5084 28.1999 26.3834 25.0832 25.1084C24.2332 24.825 23.2416 24.825 22.5332 25.25C21.1166 26.1 19.6999 26.525 17.9999 26.525C16.2999 26.525 14.8832 26.1 13.4666 25.25C12.7582 24.9667 11.7666 24.825 10.9166 25.25C7.7999 26.525 5.39157 28.65 4.11657 31.2C3.1249 33.0417 4.68323 35.1667 6.80823 35.1667H29.1916C31.3166 35.1667 32.8749 33.0417 31.8832 31.0584Z" fill="#D9D9D9"/>
</g>
<defs>
<clipPath id="clip0_1_196">
<rect x="2" y="2" width="32" height="32" rx="16" fill="white"/>
</clipPath>
</defs>
</svg>
