<svg width="120" height="24" viewBox="0 0 120 24" fill="none" xmlns="http://www.w3.org/2000/svg">
<path d="M9.36195 9.15806C9.36195 9.15806 6.20195 9.50806 4.09395 9.74206C3.90395 9.76506 3.73595 9.89206 3.67295 10.0851C3.60995 10.2781 3.67295 10.4791 3.81295 10.6061C5.37895 12.0351 7.73195 14.1751 7.73195 14.1751C7.72995 14.1751 7.08595 17.2881 6.65795 19.3651C6.62195 19.5531 6.68995 19.7521 6.85395 19.8711C7.01695 19.9901 7.22695 19.9921 7.39195 19.8991C9.23595 18.8511 11.998 17.2751 11.998 17.2751C11.998 17.2751 14.761 18.8511 16.602 19.9001C16.77 19.9921 16.98 19.9901 17.143 19.8711C17.307 19.7521 17.375 19.5531 17.338 19.3661C16.91 17.2881 16.267 14.1751 16.267 14.1751C16.267 14.1751 18.62 12.0351 20.186 10.6091C20.326 10.4781 20.388 10.2771 20.326 10.0851C20.264 9.89306 20.096 9.76606 19.906 9.74406C17.798 9.50806 14.637 9.15806 14.637 9.15806C14.637 9.15806 13.327 6.26006 12.454 4.32806C12.372 4.15506 12.2 4.03406 11.998 4.03406C11.796 4.03406 11.623 4.15606 11.545 4.32806C10.671 6.26006 9.36195 9.15806 9.36195 9.15806Z" fill="#F79400"/>
<path d="M33.362 9.15806C33.362 9.15806 30.202 9.50806 28.094 9.74206C27.904 9.76506 27.736 9.89206 27.673 10.0851C27.61 10.2781 27.673 10.4791 27.813 10.6061C29.379 12.0351 31.732 14.1751 31.732 14.1751C31.73 14.1751 31.086 17.2881 30.658 19.3651C30.622 19.5531 30.69 19.7521 30.854 19.8711C31.017 19.9901 31.227 19.9921 31.392 19.8991C33.236 18.8511 35.998 17.2751 35.998 17.2751C35.998 17.2751 38.761 18.8511 40.602 19.9001C40.77 19.9921 40.98 19.9901 41.143 19.8711C41.307 19.7521 41.375 19.5531 41.338 19.3661C40.91 17.2881 40.267 14.1751 40.267 14.1751C40.267 14.1751 42.62 12.0351 44.186 10.6091C44.326 10.4781 44.388 10.2771 44.326 10.0851C44.264 9.89306 44.096 9.76606 43.906 9.74406C41.798 9.50806 38.637 9.15806 38.637 9.15806C38.637 9.15806 37.327 6.26006 36.454 4.32806C36.372 4.15506 36.2 4.03406 35.998 4.03406C35.796 4.03406 35.623 4.15606 35.545 4.32806C34.671 6.26006 33.362 9.15806 33.362 9.15806Z" fill="#F79400"/>
<path d="M57.362 9.15806C57.362 9.15806 54.202 9.50806 52.094 9.74206C51.904 9.76506 51.736 9.89206 51.673 10.0851C51.61 10.2781 51.673 10.4791 51.813 10.6061C53.379 12.0351 55.732 14.1751 55.732 14.1751C55.73 14.1751 55.086 17.2881 54.658 19.3651C54.622 19.5531 54.69 19.7521 54.854 19.8711C55.017 19.9901 55.227 19.9921 55.392 19.8991C57.236 18.8511 59.998 17.2751 59.998 17.2751C59.998 17.2751 62.761 18.8511 64.602 19.9001C64.77 19.9921 64.98 19.9901 65.143 19.8711C65.307 19.7521 65.375 19.5531 65.338 19.3661C64.91 17.2881 64.267 14.1751 64.267 14.1751C64.267 14.1751 66.62 12.0351 68.186 10.6091C68.326 10.4781 68.388 10.2771 68.326 10.0851C68.264 9.89306 68.096 9.76606 67.906 9.74406C65.798 9.50806 62.637 9.15806 62.637 9.15806C62.637 9.15806 61.327 6.26006 60.454 4.32806C60.372 4.15506 60.2 4.03406 59.998 4.03406C59.796 4.03406 59.623 4.15606 59.545 4.32806C58.671 6.26006 57.362 9.15806 57.362 9.15806Z" fill="#F79400"/>
<path d="M81.362 9.15806C81.362 9.15806 78.202 9.50806 76.094 9.74206C75.904 9.76506 75.736 9.89206 75.673 10.0851C75.61 10.2781 75.673 10.4791 75.813 10.6061C77.379 12.0351 79.732 14.1751 79.732 14.1751C79.73 14.1751 79.086 17.2881 78.658 19.3651C78.622 19.5531 78.69 19.7521 78.854 19.8711C79.017 19.9901 79.227 19.9921 79.392 19.8991C81.236 18.8511 83.998 17.2751 83.998 17.2751C83.998 17.2751 86.761 18.8511 88.602 19.9001C88.77 19.9921 88.98 19.9901 89.143 19.8711C89.307 19.7521 89.375 19.5531 89.338 19.3661C88.91 17.2881 88.267 14.1751 88.267 14.1751C88.267 14.1751 90.62 12.0351 92.186 10.6091C92.326 10.4781 92.388 10.2771 92.326 10.0851C92.264 9.89306 92.096 9.76606 91.906 9.74406C89.798 9.50806 86.637 9.15806 86.637 9.15806C86.637 9.15806 85.327 6.26006 84.454 4.32806C84.372 4.15506 84.2 4.03406 83.998 4.03406C83.796 4.03406 83.623 4.15606 83.545 4.32806C82.671 6.26006 81.362 9.15806 81.362 9.15806Z" fill="#F79400"/>
<path d="M105.362 9.15806C105.362 9.15806 102.202 9.50806 100.094 9.74206C99.904 9.76506 99.736 9.89206 99.673 10.0851C99.61 10.2781 99.673 10.4791 99.813 10.6061C101.379 12.0351 103.732 14.1751 103.732 14.1751C103.73 14.1751 103.086 17.2881 102.658 19.3651C102.622 19.5531 102.69 19.7521 102.854 19.8711C103.017 19.9901 103.227 19.9921 103.392 19.8991C105.236 18.8511 107.998 17.2751 107.998 17.2751C107.998 17.2751 110.761 18.8511 112.602 19.9001C112.77 19.9921 112.98 19.9901 113.143 19.8711C113.307 19.7521 113.375 19.5531 113.338 19.3661C112.91 17.2881 112.267 14.1751 112.267 14.1751C112.267 14.1751 114.62 12.0351 116.186 10.6091C116.326 10.4781 116.388 10.2771 116.326 10.0851C116.264 9.89306 116.096 9.76606 115.906 9.74406C113.798 9.50806 110.637 9.15806 110.637 9.15806C110.637 9.15806 109.327 6.26006 108.454 4.32806C108.372 4.15506 108.2 4.03406 107.998 4.03406C107.796 4.03406 107.623 4.15606 107.545 4.32806C106.671 6.26006 105.362 9.15806 105.362 9.15806Z" fill="#F79400"/>
</svg>
