<svg width="90" height="90" viewBox="0 0 90 90" fill="none" xmlns="http://www.w3.org/2000/svg">
<path fill-rule="evenodd" clip-rule="evenodd" d="M11.9529 6.2642C10.3643 6.2642 9.0765 7.55202 9.0765 9.14062V12.017H61.2356V9.14062C61.2356 8.11496 61.4572 7.14106 61.8552 6.2642H11.9529ZM68.2029 2.17329H11.9529C8.10497 2.17329 4.9856 5.29267 4.9856 9.14062V14.0625C4.9856 15.1922 5.90138 16.108 7.03105 16.108H14.8293V71.0153C14.8293 74.8634 17.9489 77.9822 21.7965 77.9826L33.0466 77.9829C34.1763 77.983 35.0921 77.0672 35.0921 75.9376C35.0922 74.8079 34.1764 73.8921 33.0467 73.892L21.7969 73.8917C21.7968 73.8917 21.7969 73.8917 21.7969 73.8917C20.208 73.8915 18.9203 72.6036 18.9203 71.0153V16.108H63.281C64.4107 16.108 65.3265 15.1922 65.3265 14.0625V9.14062C65.3265 7.55202 66.6143 6.2642 68.2029 6.2642C69.7915 6.2642 71.0793 7.55202 71.0793 9.14062V71.0017C71.0391 74.8159 74.46 77.9433 78.3786 77.9808C78.4119 77.9811 78.4452 77.9806 78.4784 77.9793C80.5125 77.8995 82.2346 77.1541 83.4201 75.7753C84.5755 74.4316 85.0297 72.71 85.014 71.0034V64.6858C85.014 64.1432 84.7984 63.6228 84.4146 63.2392C84.0309 62.8556 83.5104 62.6401 82.9678 62.6403L78.046 62.642C76.9163 62.6424 76.0009 63.5585 76.0013 64.6882C76.0016 65.8179 76.9177 66.7333 78.0474 66.7329L80.9231 66.7319V71.0136L80.9232 71.0349C80.9335 72.0269 80.6691 72.7001 80.3182 73.1082C80.0001 73.4781 79.4359 73.837 78.3693 73.8893C76.4491 73.8456 75.1538 72.3081 75.1701 71.0398L75.1702 9.14062C75.1702 5.29267 72.0509 2.17329 68.2029 2.17329Z" fill="#BC7A3F"/>
<path fill-rule="evenodd" clip-rule="evenodd" d="M44.8589 48.3545C43.5578 48.3545 42.2694 48.6108 41.0674 49.1087C39.8654 49.6065 38.7731 50.3363 37.8531 51.2563C36.9331 52.1763 36.2033 53.2685 35.7054 54.4706C35.2075 55.6726 34.9513 56.9608 34.9513 58.2619C34.9513 59.5629 35.2075 60.8512 35.7054 62.0532C36.2033 63.2552 36.9331 64.3474 37.8531 65.2674C38.7731 66.1874 39.8654 66.9172 41.0674 67.4151C42.2694 67.913 43.5578 68.1692 44.8589 68.1692C46.1601 68.1692 47.4484 67.913 48.6504 67.4151C49.8525 66.9172 50.9447 66.1874 51.8647 65.2674C52.7847 64.3474 53.5145 63.2552 54.0124 62.0532C54.5103 60.8512 54.7666 59.5629 54.7666 58.2619C54.7666 56.9608 54.5103 55.6726 54.0124 54.4706C53.5145 53.2685 52.7847 52.1763 51.8647 51.2563C50.9447 50.3363 49.8525 49.6065 48.6504 49.1087C47.4484 48.6108 46.1601 48.3545 44.8589 48.3545ZM39.5019 45.3291C41.2003 44.6256 43.0207 44.2636 44.8589 44.2636C46.6972 44.2636 48.5175 44.6256 50.2159 45.3291C51.9143 46.0326 53.4575 47.0637 54.7574 48.3636C56.0573 49.6635 57.0884 51.2067 57.7919 52.905C58.4954 54.6033 58.8575 56.4236 58.8575 58.2619C58.8575 60.1002 58.4954 61.9204 57.7919 63.6187C57.0884 65.3171 56.0573 66.8603 54.7574 68.1602C53.4575 69.46 51.9143 70.4911 50.2159 71.1946C48.5175 71.8981 46.6972 72.2601 44.8589 72.2601C43.0207 72.2601 41.2003 71.8981 39.5019 71.1946C37.8035 70.4911 36.2603 69.46 34.9605 68.1602C33.6605 66.8603 32.6294 65.3171 31.9259 63.6187C31.2224 61.9204 30.8604 60.1002 30.8604 58.2619C30.8604 56.4236 31.2224 54.6033 31.9259 52.905C32.6294 51.2067 33.6605 49.6635 34.9605 48.3636C36.2603 47.0637 37.8035 46.0326 39.5019 45.3291Z" fill="#BC7A3F"/>
<path fill-rule="evenodd" clip-rule="evenodd" d="M44.8589 54.6827C43.9094 54.6827 42.999 55.0597 42.3278 55.7309C41.6566 56.4021 41.2794 57.3126 41.2794 58.2619C41.2794 58.732 41.372 59.1975 41.5518 59.6318C41.7317 60.0659 41.9953 60.4604 42.3278 60.7929C42.6603 61.1254 43.055 61.3892 43.4891 61.569C43.9233 61.7488 44.3887 61.8414 44.8589 61.8414C45.3291 61.8414 45.7946 61.7488 46.2288 61.569C46.6629 61.3892 47.0576 61.1254 47.3901 60.7929C47.7226 60.4604 47.9862 60.0659 48.166 59.6318C48.3459 59.1975 48.4385 58.732 48.4385 58.2619C48.4385 57.3126 48.0613 56.4021 47.39 55.7309C46.7189 55.0597 45.8084 54.6827 44.8589 54.6827ZM39.4352 52.8381C40.8738 51.3996 42.8248 50.5918 44.8589 50.5918C46.8931 50.5918 48.8441 51.3996 50.2827 52.8381C51.7212 54.2765 52.5293 56.2276 52.5294 58.2618C52.5294 59.2691 52.331 60.2666 51.9456 61.1972C51.56 62.128 50.995 62.9734 50.2828 63.6856C49.5707 64.3977 48.7251 64.9629 47.7943 65.3485C46.8636 65.734 45.8661 65.9323 44.8589 65.9323C43.8517 65.9323 42.8543 65.734 41.9235 65.3485C40.9927 64.9629 40.1472 64.3977 39.4351 63.6856C38.7229 62.9734 38.1578 62.128 37.7723 61.1972C37.3868 60.2666 37.1885 59.2691 37.1885 58.2618C37.1885 56.2276 37.9967 54.2765 39.4352 52.8381Z" fill="#BC7A3F"/>
<path fill-rule="evenodd" clip-rule="evenodd" d="M35.9231 85.7792V67.4986H40.014V82.1665L43.9474 79.8065C44.5952 79.4178 45.4044 79.4178 46.0522 79.8065L49.9856 82.1665V67.4986H54.0765V85.7792C54.0765 86.5161 53.6801 87.1961 53.0388 87.5591C52.3976 87.9222 51.6106 87.9123 50.9787 87.5332L44.9998 83.9458L39.0209 87.5332C38.389 87.9123 37.602 87.9222 36.9608 87.5591C36.3195 87.1961 35.9231 86.5161 35.9231 85.7792Z" fill="#BC7A3F"/>
<path fill-rule="evenodd" clip-rule="evenodd" d="M42.8135 53.6799V46.8715H46.9044V53.6799H42.8135Z" fill="#BC7A3F"/>
<path fill-rule="evenodd" clip-rule="evenodd" d="M38.7418 60.3073H32.9058V56.2164H38.7418V60.3073Z" fill="#BC7A3F"/>
<path fill-rule="evenodd" clip-rule="evenodd" d="M56.2498 60.3073H50.4138V56.2164H56.2498V60.3073Z" fill="#BC7A3F"/>
<path fill-rule="evenodd" clip-rule="evenodd" d="M42.8135 80.914V64.3792H46.9044V80.914H42.8135Z" fill="#BC7A3F"/>
<path fill-rule="evenodd" clip-rule="evenodd" d="M78.75 77.9812L56.9531 77.9829C55.8234 77.983 54.9076 77.0673 54.9075 75.9377C54.9074 74.808 55.8231 73.8921 56.9528 73.892L78.7496 73.8903C79.8793 73.8902 80.7952 74.8059 80.7953 75.9356C80.7953 77.0653 79.8796 77.9811 78.75 77.9812Z" fill="#BC7A3F"/>
<path fill-rule="evenodd" clip-rule="evenodd" d="M28.1448 19.7524L38.6516 19.7521C39.7813 19.7521 40.6971 20.6678 40.6971 21.7975C40.6971 22.9272 39.7814 23.843 38.6517 23.843L28.1449 23.8433C27.0152 23.8433 26.0994 22.9275 26.0994 21.7979C26.0993 20.6682 27.0151 19.7524 28.1448 19.7524Z" fill="#BC7A3F"/>
<path fill-rule="evenodd" clip-rule="evenodd" d="M55.6106 21.7974C55.6107 20.6678 56.5265 19.752 57.6562 19.7521L61.8349 19.7524C62.9645 19.7524 63.8803 20.6683 63.8802 21.7979C63.8801 22.9276 62.9643 23.8433 61.8346 23.8433L57.6559 23.843C56.5263 23.8429 55.6105 22.9271 55.6106 21.7974Z" fill="#BC7A3F"/>
<path fill-rule="evenodd" clip-rule="evenodd" d="M41.5679 21.7972C41.5679 20.6675 42.4837 19.7518 43.6133 19.7518H52.7144C53.8441 19.7518 54.7599 20.6675 54.7599 21.7972C54.7599 22.9269 53.8441 23.8427 52.7144 23.8427H43.6133C42.4837 23.8427 41.5679 22.9269 41.5679 21.7972Z" fill="#BC7A3F"/>
<path fill-rule="evenodd" clip-rule="evenodd" d="M26.0994 27.4215C26.0994 26.2918 27.0152 25.376 28.1449 25.3761L47.0892 25.3768C48.2189 25.3768 49.1346 26.2926 49.1346 27.4223C49.1346 28.552 48.2187 29.4677 47.0891 29.4677L28.1447 29.467C27.0151 29.4669 26.0993 28.5511 26.0994 27.4215Z" fill="#BC7A3F"/>
<path fill-rule="evenodd" clip-rule="evenodd" d="M31.7239 38.6719C31.7239 37.5422 32.6397 36.6264 33.7693 36.6264H56.2298C57.3595 36.6264 58.2752 37.5422 58.2752 38.6719C58.2752 39.8015 57.3595 40.7173 56.2298 40.7173H33.7693C32.6397 40.7173 31.7239 39.8015 31.7239 38.6719Z" fill="#BC7A3F"/>
<path fill-rule="evenodd" clip-rule="evenodd" d="M52.0509 25.3768L61.8546 25.3761C62.9843 25.376 63.9001 26.2917 63.9002 27.4214C63.9003 28.5511 62.9846 29.4669 61.8549 29.467L52.0512 29.4677C50.9215 29.4678 50.0057 28.552 50.0056 27.4224C50.0055 26.2927 50.9213 25.3768 52.0509 25.3768Z" fill="#BC7A3F"/>
<path fill-rule="evenodd" clip-rule="evenodd" d="M26.0994 33.0462C26.0996 31.9165 27.0155 31.0009 28.1452 31.0011L32.3239 31.0018C33.4535 31.0019 34.3692 31.9179 34.369 33.0476C34.3688 34.1772 33.4529 35.0929 32.3232 35.0927L28.1445 35.092C27.0148 35.0918 26.0992 34.1759 26.0994 33.0462Z" fill="#BC7A3F"/>
<path fill-rule="evenodd" clip-rule="evenodd" d="M49.9416 31.0018L61.8547 31.0011C62.9843 31.001 63.9002 31.9167 63.9002 33.0464C63.9003 34.1761 62.9846 35.0919 61.8549 35.092L49.9418 35.0927C48.8121 35.0927 47.8963 34.177 47.8962 33.0473C47.8962 31.9177 48.8119 31.0018 49.9416 31.0018Z" fill="#BC7A3F"/>
<path fill-rule="evenodd" clip-rule="evenodd" d="M35.24 33.0468C35.24 31.9171 36.1558 31.0014 37.2855 31.0014L44.9798 31.0017C46.1095 31.0017 47.0253 31.9175 47.0252 33.0472C47.0252 34.1769 46.1094 35.0926 44.9797 35.0926L37.2854 35.0923C36.1557 35.0923 35.24 34.1765 35.24 33.0468Z" fill="#BC7A3F"/>
</svg>
