<svg width="90" height="90" viewBox="0 0 90 90" fill="none" xmlns="http://www.w3.org/2000/svg">
<path fill-rule="evenodd" clip-rule="evenodd" d="M43.9981 3.52436C44.6434 3.27834 45.3566 3.27834 46.0019 3.52436L73.7279 14.0949C74.998 14.2318 76.1907 14.7982 77.1025 15.71C78.1574 16.7649 78.75 18.1957 78.75 19.6875V40.3242C78.75 71.785 52.0395 82.197 46.8017 83.9384C45.6368 84.3555 44.3632 84.3555 43.1983 83.9384C37.9605 82.197 11.25 71.785 11.25 40.3242V19.6875C11.25 18.1957 11.8426 16.7649 12.8975 15.71C13.8093 14.7982 15.0019 14.2318 16.2721 14.0949L43.9981 3.52436ZM45 9.16231L17.8769 19.503C17.557 19.625 17.2174 19.6875 16.875 19.6875L16.875 40.3242C16.875 67.8379 40.1476 77.0025 45 78.6096C49.8524 77.0025 73.125 67.8379 73.125 40.3242V19.6875C72.7826 19.6875 72.443 19.625 72.1231 19.503L45 9.16231ZM62.5037 32.1602C63.5759 33.2841 63.534 35.0644 62.4101 36.1366L41.7734 55.824C40.6861 56.8614 38.9754 56.8606 37.8889 55.8224L27.5881 45.9786C26.4652 44.9055 26.4248 43.1252 27.4979 42.0022C28.5711 40.8792 30.3514 40.8388 31.4744 41.912L39.8337 49.9004L58.5274 32.0666C59.6513 30.9944 61.4315 31.0363 62.5037 32.1602Z" fill="#BC7A3F"/>
</svg>
