<svg width="90" height="90" viewBox="0 0 90 90" fill="none" xmlns="http://www.w3.org/2000/svg">
<path fill-rule="evenodd" clip-rule="evenodd" d="M61.875 45C52.5552 45 45 52.5552 45 61.875C45 71.1948 52.5552 78.75 61.875 78.75C71.1948 78.75 78.75 71.1948 78.75 61.875C78.75 52.5552 71.1948 45 61.875 45ZM39.375 61.875C39.375 49.4486 49.4486 39.375 61.875 39.375C74.3014 39.375 84.375 49.4486 84.375 61.875C84.375 74.3014 74.3014 84.375 61.875 84.375C49.4486 84.375 39.375 74.3014 39.375 61.875Z" fill="#BC7A3F"/>
<path fill-rule="evenodd" clip-rule="evenodd" d="M11.25 33.75C11.25 32.1967 12.5092 30.9375 14.0625 30.9375H59.0625C60.6158 30.9375 61.875 32.1967 61.875 33.75C61.875 35.3033 60.6158 36.5625 59.0625 36.5625H14.0625C12.5092 36.5625 11.25 35.3033 11.25 33.75Z" fill="#BC7A3F"/>
<path fill-rule="evenodd" clip-rule="evenodd" d="M29.5282 12.5331L32.2355 22.0086C32.6623 23.5021 31.7974 25.0588 30.3039 25.4855C28.8104 25.9123 27.2537 25.0474 26.827 23.5539L23.452 11.7414C23.0852 10.4576 23.6715 9.09284 24.8553 8.47523C32.1392 4.67492 40.9858 4.67492 48.2697 8.47523C49.4535 9.09284 50.0398 10.4576 49.673 11.7414L46.298 23.5539C45.8713 25.0474 44.3146 25.9123 42.8211 25.4855C41.3276 25.0588 40.4627 23.5021 40.8895 22.0086L43.5967 12.5331C39.0913 10.8223 34.0337 10.8223 29.5282 12.5331Z" fill="#BC7A3F"/>
<path fill-rule="evenodd" clip-rule="evenodd" d="M43.9945 12.3342C44.7937 11.0023 46.5213 10.5704 47.8533 11.3695C54.3206 15.25 58.5 22.3502 58.5 30.375V33.75C58.5 35.3033 57.2408 36.5625 55.6875 36.5625C54.1342 36.5625 52.875 35.3033 52.875 33.75V30.375C52.875 24.3372 49.7419 19.0625 44.9592 16.1929C43.6273 15.3938 43.1954 13.6662 43.9945 12.3342Z" fill="#BC7A3F"/>
<path fill-rule="evenodd" clip-rule="evenodd" d="M29.1304 12.3342C29.9296 13.6662 29.4977 15.3938 28.1658 16.1929C23.3831 19.0625 20.25 24.3372 20.25 30.375V33.75C20.25 35.3033 18.9908 36.5625 17.4375 36.5625C15.8842 36.5625 14.625 35.3033 14.625 33.75V30.375C14.625 22.3502 18.8044 15.25 25.2717 11.3695C26.6037 10.5704 28.3313 11.0023 29.1304 12.3342Z" fill="#BC7A3F"/>
<path fill-rule="evenodd" clip-rule="evenodd" d="M22.5 30.9375C24.0533 30.9375 25.3125 32.1967 25.3125 33.75V39.375C25.3125 44.5274 27.512 48.8588 31.0219 51.0525C31.8442 51.5665 32.3438 52.4678 32.3438 53.4375C32.3438 60.4773 27.962 66.7584 21.2604 68.5289C16.8001 69.75 13.1983 73.626 11.6268 78.75H36.5625C38.1158 78.75 39.375 80.0092 39.375 81.5625C39.375 83.1158 38.1158 84.375 36.5625 84.375H9.84375C8.39744 84.375 7.27901 83.6295 6.60416 82.7619C5.95302 81.9247 5.625 80.8871 5.625 79.875C5.625 79.6823 5.64481 79.4901 5.68412 79.3014C7.25482 71.762 12.3624 65.1251 19.7912 63.0991L19.8155 63.0925L19.8155 63.0926C23.3968 62.1501 26.1245 58.9442 26.6332 54.8354C22.0622 51.2539 19.6875 45.4405 19.6875 39.375V33.75C19.6875 32.1967 20.9467 30.9375 22.5 30.9375Z" fill="#BC7A3F"/>
<path d="M72.5322 55.5162C73.1773 56.1822 73.1521 57.2372 72.4758 57.8726L60.0585 69.5392C59.4043 70.154 58.3749 70.1535 57.7212 69.5383L51.5231 63.7049C50.8474 63.069 50.8231 62.014 51.4688 61.3485C52.1146 60.6831 52.5 60 54 60.5L58.7518 64.5682L69.5 54.5C71 53.5 71.887 54.8502 72.5322 55.5162Z" fill="#BC7A3F"/>
</svg>
